<?xml version="1.0" standalone="no"?>
<!DOCTYPE svg PUBLIC "-//W3C//DTD SVG 20010904//EN"
 "http://www.w3.org/TR/2001/REC-SVG-20010904/DTD/svg10.dtd">
<svg version="1.0" xmlns="http://www.w3.org/2000/svg"
 width="359.000000pt" height="359.000000pt" viewBox="0 0 359.000000 359.000000"
 preserveAspectRatio="xMidYMid meet">
<metadata>
Created by potrace 1.14, written by Peter Selinger 2001-2017
</metadata>
<g transform="translate(0.000000,359.000000) scale(0.100000,-0.100000)"
fill="#000000" stroke="none">
<path d="M3530 3576 c0 -8 5 -27 12 -43 6 -15 10 -32 9 -37 -1 -4 4 -15 10
-23 7 -8 16 -31 20 -51 5 -26 7 -6 8 66 l1 102 -30 0 c-19 0 -30 -5 -30 -14z"/>
<path d="M3204 3445 c-18 -15 -18 -15 5 -13 14 2 26 9 29 16 5 17 -10 15 -34
-3z"/>
<path d="M3045 3360 c-4 -6 1 -17 11 -24 18 -14 12 -36 -11 -36 -7 0 -15 -6
-18 -12 -2 -7 -29 -26 -58 -41 -169 -88 -465 -279 -564 -364 -21 -18 -42 -33
-47 -33 -5 0 -24 -11 -41 -24 -18 -13 -42 -27 -53 -30 -12 -4 -29 -15 -39 -26
-10 -11 -23 -20 -30 -20 -6 0 -26 -16 -45 -35 -19 -19 -40 -35 -48 -35 -8 0
-43 -20 -79 -45 -35 -25 -66 -45 -68 -45 -4 0 -56 -33 -158 -101 -32 -22 -62
-39 -66 -39 -5 0 -11 -4 -13 -8 -1 -5 -46 -37 -98 -72 -105 -71 -107 -72 -156
-116 -32 -28 -34 -33 -20 -47 9 -9 16 -19 16 -24 0 -5 19 -30 43 -57 l42 -48
50 32 c28 18 108 70 180 116 71 46 132 84 136 84 11 0 -2 -43 -17 -61 -8 -8
-26 -44 -40 -79 -30 -76 -53 -112 -65 -104 -5 3 -9 -2 -9 -10 0 -15 -12 -21
-34 -17 -19 4 -75 -30 -81 -49 -4 -11 -15 -25 -26 -31 -11 -5 -19 -18 -18 -27
3 -30 -1 -33 -22 -21 -18 9 -24 7 -39 -13 -10 -12 -37 -47 -60 -76 -22 -29
-60 -66 -83 -84 l-42 -31 33 7 c18 3 48 17 66 31 32 24 106 123 106 141 0 5
12 9 28 10 44 1 66 8 97 30 37 26 95 39 95 21 0 -6 -5 -29 -11 -50 -5 -21 -11
-88 -12 -150 -2 -82 -9 -134 -26 -192 -37 -130 -28 -120 -109 -120 -67 0 -73
-2 -105 -33 -39 -37 -43 -37 -162 5 -38 14 -78 26 -89 29 -50 10 -91 64 -48
64 18 0 42 18 42 32 0 4 -13 14 -28 22 -27 14 -30 13 -55 -15 -14 -16 -28 -38
-31 -47 -6 -18 -88 -92 -102 -92 -4 0 -22 -11 -41 -26 -18 -14 -33 -20 -33
-14 0 6 -4 8 -10 5 -6 -4 -9 -97 -8 -243 2 -269 -9 -512 -24 -552 -24 -63 -27
-132 -20 -482 l2 -88 103 0 102 0 2 98 c2 53 5 122 8 152 7 74 23 364 30 530
3 74 8 152 11 173 6 37 7 38 37 31 18 -3 46 -14 64 -23 51 -26 144 -93 150
-107 3 -7 -14 -48 -37 -91 -24 -43 -53 -98 -66 -122 -13 -25 -24 -56 -24 -71
0 -14 -5 -31 -12 -38 -9 -9 -7 -17 8 -34 12 -13 26 -42 33 -65 8 -28 25 -54
53 -77 23 -20 45 -36 49 -36 12 0 27 -89 35 -207 10 -165 28 -148 40 40 4 58
12 100 18 102 6 1 28 8 49 15 21 6 40 10 41 8 3 -4 -11 -179 -19 -235 l-6 -43
865 0 c681 0 867 3 873 13 4 6 9 65 10 130 1 95 5 123 18 137 28 31 44 91 45
167 0 39 5 84 11 100 6 15 14 46 18 68 l8 40 6 -55 c3 -30 11 -104 17 -165 7
-60 20 -159 30 -220 10 -60 21 -134 25 -162 7 -50 8 -53 36 -53 l30 0 -3 188
c-3 147 -9 210 -26 292 -30 140 -39 187 -56 300 -41 269 -49 331 -50 427 -1
94 -3 104 -19 99 -11 -3 -23 4 -32 18 -17 26 -51 175 -94 411 -36 202 -52 278
-57 273 -2 -2 3 -46 11 -98 15 -98 39 -310 50 -439 4 -40 13 -107 21 -148 8
-41 14 -77 14 -79 0 -10 -29 -2 -88 23 -42 19 -64 34 -67 48 -7 33 -14 114
-35 415 -20 276 -36 420 -47 420 -3 0 -3 -33 1 -72 4 -40 9 -111 11 -158 3
-47 11 -170 17 -275 7 -104 13 -224 13 -265 l0 -74 -55 -12 c-30 -6 -79 -18
-109 -27 -30 -10 -60 -17 -67 -17 -25 0 -23 70 6 173 40 145 52 261 40 388
-27 279 -43 373 -86 496 -34 97 -40 107 -113 181 -74 77 -78 79 -170 107 -52
15 -110 29 -130 30 -20 1 -40 3 -46 4 -10 1 66 55 127 89 50 29 137 82 195
119 29 18 57 33 62 33 9 0 105 62 131 85 8 7 37 25 65 39 27 15 64 40 81 55
17 16 46 37 65 46 63 33 66 42 26 80 -19 19 -38 48 -42 65 -4 16 -13 33 -20
38 -8 4 -20 25 -27 46 -13 41 -31 55 -43 36z m95 -199 c0 -5 -16 -18 -35 -30
l-35 -20 0 29 c0 20 5 30 15 30 8 0 15 5 15 10 0 7 6 7 20 0 11 -6 20 -15 20
-19z m-874 -977 c17 -12 28 -14 36 -6 12 12 50 2 101 -28 59 -35 42 -51 -26
-24 -10 3 -17 -3 -21 -21 -7 -26 8 -65 24 -65 6 0 8 -19 6 -42 -3 -29 1 -49
12 -61 21 -24 12 -29 -37 -21 -25 4 -41 12 -41 20 0 8 5 14 10 14 6 0 10 5 10
11 0 6 -9 9 -20 6 -11 -3 -23 -1 -26 4 -3 5 -11 9 -17 8 -7 0 -2 -7 11 -16 29
-20 28 -29 -3 -37 -20 -5 -25 -13 -26 -39 -2 -31 -2 -31 -6 -4 -3 16 -12 31
-21 33 -9 3 -33 14 -53 25 -20 10 -47 19 -60 19 -33 0 -20 7 24 13 36 5 64 17
39 17 -18 0 -52 42 -44 54 3 6 5 19 3 30 -2 16 2 18 33 12 46 -9 48 9 6 54
-17 18 -29 34 -28 35 3 4 69 23 81 24 4 1 19 -6 33 -15z m-589 -216 c-3 -8 -6
-5 -6 6 -1 11 2 17 5 13 3 -3 4 -12 1 -19z m532 -274 c12 -15 21 -32 21 -38 0
-6 25 -31 56 -55 39 -31 52 -46 43 -52 -7 -4 -25 -1 -40 7 -36 18 -52 -2 -21
-27 30 -23 28 -30 -8 -27 -30 2 -47 22 -30 33 20 12 9 25 -32 35 -57 15 -108
39 -108 50 0 6 5 10 11 10 16 0 79 -31 79 -39 0 -4 9 -7 20 -8 28 -2 25 18
-10 62 -30 38 -36 56 -23 68 11 12 21 8 42 -19z m-97 -135 c9 -5 28 -9 41 -9
16 0 28 -8 35 -25 9 -19 9 -24 0 -22 -20 4 -21 -33 -1 -40 10 -4 31 -20 48
-37 l30 -29 -30 7 c-16 4 -32 11 -35 15 -9 13 -37 20 -46 11 -10 -10 -104 28
-104 41 0 14 16 11 55 -11 19 -11 35 -16 36 -12 8 58 4 64 -48 91 -29 14 -52
29 -52 34 -1 8 44 -1 71 -14z m-61 -1109 c20 -11 26 -45 9 -55 -5 -3 -10 -15
-10 -26 0 -16 -4 -19 -21 -14 -14 5 -25 2 -30 -6 -5 -9 -9 -10 -9 -2 0 6 -13
10 -31 9 -27 -2 -30 0 -24 21 4 17 1 23 -11 23 -13 0 -14 3 -4 15 7 8 9 15 4
16 -15 1 57 25 83 27 13 1 33 -3 44 -8z m89 -130 c0 -5 -5 -10 -11 -10 -5 0
-7 5 -4 10 3 6 8 10 11 10 2 0 4 -4 4 -10z m-31 -41 c-5 -10 -15 -19 -20 -19
-6 0 -20 -11 -31 -25 -19 -24 -48 -34 -48 -17 0 5 17 26 37 49 24 27 43 39 55
35 14 -3 15 -8 7 -23z m-159 -63 c0 -26 -23 -40 -51 -31 -37 12 -14 55 28 55
18 0 23 -6 23 -24z"/>
<path d="M2275 2120 c3 -5 8 -10 11 -10 2 0 4 5 4 10 0 6 -5 10 -11 10 -5 0
-7 -4 -4 -10z"/>
<path d="M2180 2050 c0 -5 9 -14 20 -20 11 -6 20 -7 20 -3 0 5 -9 14 -20 21
-11 7 -20 8 -20 2z"/>
<path d="M2330 2000 c0 -5 7 -10 16 -10 8 0 12 5 9 10 -3 6 -10 10 -16 10 -5
0 -9 -4 -9 -10z"/>
<path d="M3475 3248 c-22 -11 -41 -25 -43 -29 -2 -5 -8 -9 -13 -9 -5 0 -20
-10 -33 -21 -14 -12 -47 -35 -74 -53 -118 -75 -152 -98 -159 -109 -11 -16 -70
-57 -83 -57 -5 0 -10 -4 -10 -10 0 -5 -6 -10 -13 -10 -7 0 -24 -11 -39 -25
-15 -14 -32 -25 -38 -25 -6 0 -13 -7 -16 -15 -4 -8 -10 -15 -15 -15 -12 0
-113 -62 -117 -72 -2 -4 -10 -8 -18 -8 -8 0 -14 -5 -14 -12 0 -6 -6 -19 -14
-27 -19 -21 -29 -101 -13 -101 7 0 6 -4 -3 -10 -12 -8 -11 -10 8 -10 13 0 22
-6 22 -15 0 -19 21 -19 46 0 10 8 25 15 32 15 7 0 30 11 50 25 20 14 42 25 48
25 7 0 36 16 65 35 30 19 59 35 66 35 7 0 13 3 13 8 0 4 21 16 46 26 26 10 67
33 93 50 107 72 182 116 197 116 9 0 28 9 42 21 15 11 43 30 62 42 33 22 35
26 38 86 2 52 -1 67 -17 85 -11 11 -21 34 -23 51 -4 37 -21 40 -73 13z"/>
<path d="M1190 3141 c0 -14 5 -19 15 -14 17 6 15 25 -3 31 -7 2 -12 -5 -12
-17z"/>
<path d="M1140 3075 c-7 -8 -16 -15 -21 -15 -14 0 -119 -113 -119 -127 0 -11
6 -10 29 2 28 14 30 14 36 -6 14 -42 -30 -309 -67 -407 -27 -71 -26 -93 5
-134 18 -24 26 -48 29 -87 3 -53 2 -55 -28 -63 -43 -11 -71 -44 -58 -66 6 -9
22 -22 36 -29 54 -27 59 -42 48 -139 -5 -49 -10 -101 -10 -117 l0 -27 36 15
c20 8 43 15 50 15 19 0 47 -57 33 -66 -6 -3 -15 -1 -19 6 -5 8 -9 5 -13 -9 -3
-12 1 -22 9 -25 8 -3 14 -15 14 -26 0 -12 7 -20 16 -20 8 0 29 -13 45 -29 l29
-29 0 79 c0 72 15 239 26 297 3 15 12 22 27 22 26 0 67 38 67 62 0 9 -11 30
-25 46 -33 40 -32 52 10 81 33 22 35 27 35 78 0 60 -2 59 66 38 26 -8 39 17
24 46 -13 23 -39 25 -55 2 -18 -24 -43 -9 -51 31 -9 52 -1 66 39 64 39 -1 57
7 57 28 0 16 -45 20 -55 4 -10 -16 -42 -12 -49 6 -3 9 -6 33 -6 55 0 32 3 39
19 39 11 0 23 -4 26 -10 11 -17 43 -11 50 10 9 28 -11 61 -33 53 -9 -4 -21
-12 -25 -20 -21 -35 -57 0 -57 56 0 38 14 46 52 30 25 -10 31 -10 39 2 15 24
10 58 -11 69 -16 8 -23 7 -37 -10 -18 -21 -43 -27 -43 -11 0 5 -3 16 -6 25 -4
10 3 19 19 27 32 15 18 33 -34 43 -68 12 -89 55 -36 72 22 7 46 32 47 47 0 12
-50 28 -101 33 -33 3 -50 0 -59 -11z"/>
<path d="M3397 2774 c-6 -10 20 -51 27 -43 2 2 -1 15 -8 28 -7 13 -16 20 -19
15z"/>
<path d="M3314 2682 c2 -50 8 -78 20 -91 37 -41 73 -201 49 -224 -11 -11 -12
-57 -4 -103 6 -32 5 -44 -3 -44 -7 0 -20 -17 -29 -39 -14 -31 -15 -45 -7 -67
6 -16 12 -45 12 -66 0 -27 4 -35 14 -31 8 3 14 0 14 -6 0 -6 -4 -11 -9 -11 -6
0 -6 -13 0 -32 6 -18 10 -65 9 -104 0 -53 3 -74 15 -84 8 -7 15 -9 16 -4 2 31
18 -42 19 -91 1 -33 6 -71 10 -85 8 -25 8 -25 10 5 8 114 6 155 -21 500 -6 77
-13 194 -15 261 -2 80 -9 134 -20 159 -8 21 -13 48 -10 61 4 13 2 24 -2 24 -8
0 -47 78 -65 130 -3 8 -4 -18 -3 -58z m75 -543 c-10 -6 -10 -13 -1 -34 10 -21
9 -29 -2 -40 -11 -12 -14 -7 -19 33 -6 54 -3 64 19 55 12 -4 13 -8 3 -14z"/>
<path d="M630 2601 c0 -6 -7 -7 -17 -4 -11 4 -14 3 -9 -5 4 -7 2 -12 -5 -12
-10 0 -10 -3 -1 -12 10 -10 17 -8 33 9 14 13 17 23 10 27 -6 4 -11 3 -11 -3z"/>
<path d="M2710 2590 c0 -5 5 -10 11 -10 5 0 7 5 4 10 -3 6 -8 10 -11 10 -2 0
-4 -4 -4 -10z"/>
<path d="M635 2478 c-4 -10 -4 -26 0 -35 8 -17 8 -17 12 0 3 9 3 25 0 35 -4
16 -4 16 -12 0z"/>
<path d="M3506 2395 c6 -71 31 -201 43 -224 5 -9 11 -46 15 -83 11 -113 25
-126 25 -23 0 103 -11 174 -29 185 -7 4 -10 12 -6 18 3 6 0 30 -9 54 -8 24
-15 50 -15 58 -1 8 -7 29 -15 45 -14 29 -15 28 -9 -30z"/>
<path d="M3080 2360 c0 -11 4 -20 9 -20 5 0 7 9 4 20 -3 11 -7 20 -9 20 -2 0
-4 -9 -4 -20z"/>
<path d="M3190 2315 c0 -11 7 -40 15 -65 l15 -45 -6 50 c-7 54 -23 96 -24 60z"/>
<path d="M1282 1779 c2 -6 8 -10 13 -10 5 0 11 4 13 10 2 6 -4 11 -13 11 -9 0
-15 -5 -13 -11z"/>
<path d="M985 1750 c-8 -14 3 -30 21 -30 8 0 14 9 14 20 0 21 -24 28 -35 10z"/>
<path d="M857 1299 c7 -7 15 -10 18 -7 3 3 -2 9 -12 12 -14 6 -15 5 -6 -5z"/>
<path d="M1306 40 c7 -38 11 -46 20 -38 3 3 -2 21 -10 39 l-16 34 6 -35z"/>
</g>
</svg>
